<svg xmlns="http://www.w3.org/2000/svg" width="186" height="100" viewBox="0 0 186 100" fill="none"><g clip-path="url(#clip0_544_3290)"><path fill-rule="evenodd" clip-rule="evenodd" d="M25.1899 55.5015C18.3525 55.5338 12.7525 50.0231 12.7295 43.2369C12.7079 36.4492 18.2879 30.8615 25.09 30.8584C26.7122 30.8564 28.3189 31.1748 29.8179 31.7954C31.3169 32.416 32.6788 33.3266 33.8255 34.475C34.9722 35.6234 35.8812 36.987 36.5004 38.4876C37.1195 39.9883 37.4367 41.5964 37.4336 43.22C37.4321 49.9861 31.9674 55.4677 25.1899 55.5015ZM45.1888 28.4908C38.7018 20.0184 30.0121 16.9692 19.5331 18.9415C17.1858 19.3831 15.026 20.3861 12.6249 21.56C12.6249 17.9861 12.6495 7.52922 12.6557 4.53999C12.656 4.30552 12.5812 4.07712 12.4423 3.88829C12.3035 3.69947 12.1078 3.56014 11.884 3.49075L0.860824 0.0292165C0.771498 0.000297375 0.676634 -0.00722099 0.583873 0.00726694C0.491112 0.0217549 0.403048 0.0578441 0.326773 0.112628C0.250498 0.167411 0.188145 0.239358 0.144737 0.322672C0.101328 0.405987 0.0780776 0.49834 0.0768574 0.592293C-0.0425518 14.8496 -0.0210301 29.1077 0.141419 43.3646C0.29975 55.9384 9.52596 66.4277 22.1094 67.8108C32.7468 68.98 41.0245 64.7754 46.6153 55.7184C51.7879 47.3338 51.2269 36.3769 45.1888 28.4908ZM78.5166 55.4215C71.753 55.4061 66.2806 49.9292 66.3052 43.2046C66.3313 36.5538 71.7898 31.1015 78.4536 31.0677C85.1926 31.0338 90.7065 36.4984 90.725 43.2246C90.7434 49.9631 85.2633 55.4384 78.5166 55.4215ZM78.618 18.6984C64.954 18.6523 53.9016 29.5708 53.8616 43.1554C53.8216 56.6938 64.7541 67.7477 78.263 67.8323C91.987 67.9154 103.113 56.9954 103.202 43.3508C103.29 29.8277 92.2376 18.7431 78.618 18.6969M169.523 65.1046C169.517 66.5108 169.887 66.9508 171.243 66.9123C174.8 66.8154 178.363 66.8384 181.922 66.8938C182.995 66.9108 183.305 66.5369 183.293 65.4323C183.245 60.5661 183.273 60.34 183.273 55.4723H183.253C183.253 51.5677 183.248 47.6631 183.253 43.7584C183.265 32.4708 177.147 23.4461 167.369 19.9092L167.303 19.8861C166.307 19.5277 164.808 19.0554 163.74 18.8138C162.324 18.4969 160.716 18.3523 160.712 18.3508C159.416 18.1784 157.25 18.2708 155.671 18.5046L155.474 18.5508C154.524 18.7508 153.842 18.8431 153.03 19.0461C141.486 21.9338 134.08 31.4631 134.092 43.9231C134.098 47.8277 134.094 51.7338 134.094 55.6384H134.074C134.074 60.5046 134.101 60.7308 134.052 65.5984C134.041 66.7031 134.352 67.0754 135.425 67.06C138.984 67.0031 142.547 66.9815 146.104 67.0785C147.46 67.1154 147.83 66.6784 147.822 65.2708C147.775 56.3292 147.802 52.0277 147.822 43.0861C147.833 39.0369 150.028 35.6184 153.593 34.0831C155.76 33.1508 156.916 32.6277 159.265 32.6661C159.311 32.6661 159.35 32.6631 159.394 32.6615C160.885 32.88 162.34 33.3092 163.754 33.9184C167.319 35.4523 169.514 38.8723 169.524 42.92C169.544 51.8615 169.571 56.1631 169.523 65.1046Z" fill="white"></path><path fill-rule="evenodd" clip-rule="evenodd" d="M50.7335 91.9923H48.1434V83.5631H50.7335C53.1054 83.5631 54.7456 85.1985 54.7456 87.7785C54.7456 90.3585 53.1054 91.9939 50.7335 91.9939M50.7335 80.2523H44.6924V95.3046H50.7335C54.8963 95.3046 58.0675 92.0354 58.0675 87.7785C58.0675 83.5215 54.8963 80.2523 50.7335 80.2523ZM61.52 79.7369C60.464 79.7369 59.5785 80.6185 59.5785 81.6723C59.5785 82.7246 60.464 83.6062 61.52 83.6062C62.5776 83.6062 63.4615 82.7246 63.4615 81.6723C63.4615 80.6185 62.5776 79.7369 61.52 79.7369Z" fill="#EEBC3C"></path><mask id="mask0_544_3290" style="mask-type:luminance" maskUnits="userSpaceOnUse" x="0" y="0" width="186" height="100"><path d="M0 99.9062H185.868V0H0V99.9062Z" fill="#EEBC3C"></path></mask><path fill-rule="evenodd" clip-rule="evenodd" d="M59.9023 95.3046H63.1381V84.5523H59.9023V95.3046ZM70.8179 92.2077C69.2869 92.2077 68.2078 91.1969 68.2078 89.7138C68.2078 88.2292 69.2869 87.22 70.8179 87.22C72.3505 87.22 73.4296 88.2292 73.4296 89.7123C73.4296 91.1969 72.3505 92.2077 70.8179 92.2077ZM73.4296 85.6492C72.7164 84.7677 71.6818 84.2523 70.2784 84.2523C67.2148 84.2523 64.972 86.7462 64.972 89.7138C64.972 92.6815 67.2163 95.1754 70.2799 95.1754C71.6818 95.1754 72.7164 94.6585 73.4296 93.7785V94.7662C73.4296 96.2938 72.5011 97.0677 70.9916 97.0677C69.5667 97.0677 68.941 96.4662 68.5321 95.7138L65.7698 97.3046C66.7628 99.0677 68.6397 99.9046 70.884 99.9046C73.7524 99.9046 76.5793 98.38 76.5793 94.7662V84.5538H73.4281V85.6508L73.4296 85.6492ZM78.9527 95.3046H82.1885V84.5523H78.9527V95.3046ZM80.5699 79.7369C79.5123 79.7369 78.6284 80.6185 78.6284 81.6723C78.6284 82.7246 79.5123 83.6062 80.5699 83.6062C81.6275 83.6062 82.5113 82.7246 82.5113 81.6723C82.5113 80.6185 81.6275 79.7369 80.5699 79.7369ZM88.6601 81.5431L85.4243 82.5108V84.5523H83.698V87.6492H85.4243V91.4554C85.4243 94.4662 86.6541 95.7338 90.8813 95.3046V92.38C89.4594 92.4662 88.6601 92.38 88.6601 91.4554V87.6492H90.8829V84.5523H88.6601V81.5431ZM97.7649 92.5523C96.2769 92.5523 95.1978 91.5415 95.1978 89.9292C95.1978 88.3154 96.2769 87.3046 97.7649 87.3046C99.2544 87.3046 100.332 88.3154 100.332 89.9292C100.332 91.5415 99.2544 92.5523 97.7649 92.5523ZM100.332 85.5631C99.6203 84.7477 98.5642 84.2523 97.1193 84.2523C94.2908 84.2523 91.962 86.7246 91.962 89.9292C91.962 93.1323 94.2924 95.6062 97.1177 95.6062C98.5627 95.6062 99.6203 95.1108 100.334 94.2938V95.3046H103.569V84.5523H100.332V85.5631ZM105.943 95.3046H109.179V79.6077H105.943V95.3046ZM123.095 86.3154C120.743 85.6077 120.374 85.1338 120.374 84.4446C120.374 83.8446 120.915 83.3061 121.994 83.3061C123.374 83.3061 124.086 83.9723 124.604 85.0477L127.517 83.3492C126.417 81.1338 124.474 79.9523 121.994 79.9523C119.382 79.9523 116.923 81.6292 116.923 84.5323C116.923 87.4123 119.124 88.4877 121.368 89.1108C123.633 89.7354 124.497 90.1 124.497 91.0246C124.497 91.6062 124.086 92.2508 122.446 92.2508C120.743 92.2508 119.814 91.4123 119.275 90.1646L116.299 91.8846C117.14 94.1 119.167 95.6046 122.34 95.6046C125.619 95.6046 127.948 93.8846 127.948 90.9815C127.948 87.8 125.38 87.0046 123.095 86.3154ZM133.342 81.5431L130.106 82.5108V84.5523H128.38V87.6492H130.106V91.4554C130.106 94.4662 131.336 95.7338 135.563 95.3046V92.38C134.141 92.4662 133.342 92.38 133.342 91.4554V87.6492H135.564V84.5523H133.342V81.5431ZM144.583 90.4231C144.583 91.9508 143.762 92.6385 142.575 92.6385C141.541 92.6385 140.7 92.0138 140.7 90.6815V84.5523H137.463V91.1538C137.463 94.0569 139.318 95.6046 141.496 95.6046C142.921 95.6046 144 95.0892 144.583 94.2938V95.3046H147.819V84.5523H144.583V90.4231ZM155.456 92.5523C153.968 92.5523 152.889 91.5415 152.889 89.9292C152.889 88.3154 153.968 87.3046 155.456 87.3046C156.945 87.3046 158.023 88.3154 158.023 89.9292C158.023 91.5415 156.945 92.5523 155.456 92.5523ZM158.023 85.5631C157.311 84.7477 156.255 84.2523 154.81 84.2523C151.982 84.2523 149.653 86.7246 149.653 89.9292C149.653 93.1323 151.983 95.6062 154.808 95.6062C156.253 95.6062 157.311 95.1108 158.023 94.2938V95.3046H161.26V80.2523H158.023V85.5631ZM165.251 79.7369C164.195 79.7369 163.309 80.6185 163.309 81.6723C163.309 82.7246 164.195 83.6062 165.251 83.6062C166.308 83.6062 167.192 82.7246 167.192 81.6723C167.192 80.6185 166.308 79.7369 165.251 79.7369ZM163.633 95.3046H166.869V84.5523H163.632L163.633 95.3046ZM174.42 92.4662C173.018 92.4662 171.939 91.4554 171.939 89.9277C171.939 88.4015 173.018 87.3908 174.42 87.3908C175.822 87.3908 176.901 88.4015 176.901 89.9292C176.901 91.4554 175.822 92.4662 174.42 92.4662ZM174.42 84.2508C171.249 84.2508 168.702 86.7246 168.702 89.9277C168.702 93.1323 171.249 95.6046 174.42 95.6046C177.591 95.6046 180.138 93.1323 180.138 89.9277C180.138 86.7246 177.591 84.2508 174.42 84.2508ZM183.821 91.4662C182.692 91.4662 181.775 92.3785 181.775 93.5046C181.775 94.6308 182.692 95.5446 183.82 95.5446C184.951 95.5446 185.867 94.6308 185.867 93.5046C185.867 92.3785 184.951 91.4662 183.821 91.4662Z" fill="#EEBC3C"></path><mask id="mask1_544_3290" style="mask-type:luminance" maskUnits="userSpaceOnUse" x="0" y="0" width="186" height="100"><path d="M0 99.9062H185.868V0H0V99.9062Z" fill="white"></path></mask><g mask="url(#mask1_544_3290)"><path fill-rule="evenodd" clip-rule="evenodd" d="M121.77 65.5492V65.2692C121.743 60.8585 121.739 56.4462 121.742 52.0354C121.745 47.5985 121.757 47.8015 121.77 43.3646V43.2939C121.77 42.4492 121.837 41.7846 121.837 40.8569C122.023 37.1492 125.138 34.1138 128.795 33.7108C129.21 33.5108 129.546 33.1785 129.731 32.7523L136.766 19.1985C136.936 18.8077 136.64 18.3985 136.213 18.3923C134.319 18.3615 129.588 18.68 127.371 19.1523C115.15 21.76 107.3 31.4631 107.314 43.9231C107.317 47.8277 107.314 47.0923 107.314 50.9969C107.308 50.9969 107.295 63.1954 107.271 65.5969V65.8769C107.259 66.9815 107.586 67.3539 108.716 67.3385C112.462 67.2815 116.213 67.26 119.959 67.3569C121.387 67.3939 121.777 66.9569 121.77 65.5492Z" fill="white"></path></g></g><defs><clipPath id="clip0_544_3290"><rect width="186" height="100" fill="white"></rect></clipPath></defs></svg>