<svg xmlns="http://www.w3.org/2000/svg" version="1.1" viewBox="-5.0 -10.0 110.0 135.0">
 <path d="m87.703 7.832h-31.996c-2.5039 0-4.5391 2.0352-4.5391 4.5391l0.003906 23.867c0 2.5039 2.0352 4.5391 4.5391 4.5391h0.21875c0.53516 0 0.97656 0.4375 0.97656 0.97656v4.4492c0 2.0703 2.4922 3.1211 3.9922 1.6562 7.1445-7.0039 6.7578-7.0781 7.4844-7.0781h19.324c2.5039 0 4.5391-2.0352 4.5391-4.5391l-0.003906-23.875c0-2.5-2.0352-4.5352-4.5391-4.5352zm2.8125 28.406c0 1.5508-1.2617 2.8125-2.8125 2.8125l-19.324 0.003907c-0.71875 0-1.3984 0.28125-1.9102 0.78906l-6.7852 6.7891c-0.39844 0.39063-1.0547 0.10547-1.0547-0.42969v-4.4492c0-1.4883-1.2109-2.6992-2.6992-2.6992h-0.21875c-1.5508 0-2.8125-1.2617-2.8125-2.8125l-0.003907-23.875c0-1.5508 1.2617-2.8125 2.8125-2.8125h31.996c1.5508 0 2.8125 1.2617 2.8125 2.8125z"/>
 <path d="m85.598 11.27h-27.793c-1.7578 0-3.1875 1.4297-3.1875 3.1914v19.691c0 1.75 1.4297 3.1719 3.1875 3.1719 30.348 0 28.199 0.10547 29.004-0.25 1.2031-0.46484 1.9805-1.6133 1.9805-2.9258v-19.691c0-1.7539-1.4297-3.1875-3.1914-3.1875zm-27.793 1.7266h27.793c0.80859 0 1.4648 0.65625 1.4648 1.4648v7.5039l-5.5625-5.5625c-0.96484-0.96094-2.5352-0.96094-3.4922 0l-7.5469 7.543-4.6523-4.6367c-0.63672-0.62109-1.6562-0.62109-2.293 0l-7.1719 7.25-0.003906-12.098c0-0.79688 0.67188-1.4648 1.4648-1.4648zm29.262 21.152c0 0.88672-0.75391 1.4492-1.4648 1.4492h-3.3867l-10.531-10.441 7.543-7.5352c0.28906-0.28906 0.77344-0.28516 1.0547 0l6.7852 6.7852z"/>
 <path d="m70.859 20.355c1.8359 0 3.3359-1.4961 3.3359-3.3359 0-1.8359-1.4961-3.3359-3.3359-3.3359-1.8359 0-3.3359 1.4961-3.3359 3.3359 0 1.8398 1.4961 3.3359 3.3359 3.3359z"/>
 <path d="m66.914 64.758c1.4688-0.97656 2.3789-2.6992 2.2539-4.6172-0.18359-2.6641-2.5391-4.75-5.3594-4.75-14.738-0.10547-14.582 0.26172-15.059-0.29688-0.4375-0.50781-0.13672-0.36719 0.92969-8.6367 0.78906-5.6445-3.6289-11.082-10.16-10.652-1.9375 0.18359-3.3359 1.9336-3.082 3.8633 0.14844 3.1641 1.6055 6.1094-0.57812 9.5312l-7.9805 12.559c-0.78125-0.85937-1.8945-1.4062-3.1445-1.4062l-12.711 0.003907c-2.3516 0-4.2656 1.9141-4.2656 4.2695v23.277c0 2.3516 1.9141 4.2656 4.2656 4.2656h12.703c1.2891 0 2.4336-0.58594 3.2148-1.4922 1.6875 0.88281 0.61328 0.31641 30.414 0.48828 4.3984 0 6.7461-5.2305 3.8281-8.5195 4.5547-0.046875 6.7773-5.6055 3.5234-8.7812 3.9805-1.3242 4.7578-6.7188 1.207-9.1055zm-42.184 25.688h-12.707c-1.4023 0-2.5391-1.1406-2.5391-2.543v-23.277c0-1.4023 1.1406-2.543 2.543-2.543h12.703c1.4023 0 2.543 1.1406 2.543 2.543v23.277c0 1.4023-1.1406 2.543-2.543 2.543zm39.336-18.035h-1.9297c-0.47656 0-0.86328 0.38672-0.86328 0.86328 0 0.47656 0.38672 0.86328 0.86328 0.86328 1.8711 0 3.3945 1.5234 3.3945 3.3984 0 1.9492-1.5703 3.3945-3.3945 3.3945h-3.7773c-0.47656 0-0.86328 0.38672-0.86328 0.86328 0 0.47656 0.38672 0.86328 0.86328 0.86328 1.8711 0 3.3945 1.5234 3.3945 3.3984 0 1.9219-1.5703 3.3984-3.3945 3.3984-29.855-0.125-28.426 0.27344-29.566-0.29688 0.39844-1.293 0.12109-0.023438 0.20703-24.523 0-0.39844-0.074219-0.77344-0.17578-1.1406l8.4844-13.352c2.6055-4.0742 0.94922-7.6953 0.83594-10.68-0.13281-0.99609 0.60938-1.8477 1.5117-1.9336 5.1914-0.34766 8.9805 3.9414 8.3125 8.6914l-1.1172 7.957c-0.23437 1.5508 0.97656 2.9375 2.5391 2.9375h14.414c1.8867 0 3.5195 1.4102 3.6406 3.1445 0.12891 1.9844-1.3906 3.6328-3.3828 3.6328-0.47656 0-0.86328 0.38672-0.86328 0.86328 0 0.47656 0.38672 0.86328 0.86328 0.86328 1.8711 0 3.3945 1.5234 3.3945 3.3984 0.003907 1.875-1.4844 3.3945-3.3906 3.3945z"/>
 <path d="m16.895 79.219c-1.7031 0-3.0977 1.3789-3.0977 3.082s1.3945 3.0977 3.0977 3.0977 3.082-1.3945 3.082-3.0977-1.3789-3.082-3.082-3.082z"/>
<text x="0.0" y="117.5" font-size="5.0" font-weight="bold" font-family="Arbeit Regular, Helvetica, Arial-Unicode, Arial, Sans-serif" fill="#000000">Created by Smashing Stocks</text><text x="0.0" y="122.5" font-size="5.0" font-weight="bold" font-family="Arbeit Regular, Helvetica, Arial-Unicode, Arial, Sans-serif" fill="#000000">from Noun Project</text></svg>