<svg xmlns="http://www.w3.org/2000/svg" xmlns:xlink="http://www.w3.org/1999/xlink" version="1.1" x="0px" y="0px" viewBox="0 0 60 55" style="enable-background:new 0 0 60 44;" xml:space="preserve"><g><g><path d="M59,28h-3.049c-0.424-9.645-6.904-18.242-16.083-22h10.233c0.465,2.279,2.484,4,4.899,4c2.757,0,5-2.243,5-5s-2.243-5-5-5    c-2.415,0-4.434,1.721-4.899,4H35V1c0-0.553-0.448-1-1-1h-8c-0.552,0-1,0.447-1,1v3H9.898C9.435,1.721,7.415,0,5,0    C2.243,0,0,2.242,0,5s2.243,5,5,5c2.415,0,4.435-1.721,4.899-4h10.234c-9.18,3.758-15.66,12.355-16.084,22H1c-0.552,0-1,0.447-1,1    v8c0,0.553,0.448,1,1,1h8c0.552,0,1-0.447,1-1v-8c0-0.553-0.448-1-1-1H6.048C6.555,17.948,14.599,8.836,25,6.549V9    c0,0.553,0.448,1,1,1h2.622c-0.667,1.821-2.244,5.426-5.403,9.375c-0.181,0.227-0.255,0.52-0.203,0.804l1.79,9.841    C23.244,30.122,22,31.412,22,33c0,1.302,0.838,2.402,2,2.816v2.948l-1.895,3.789c-0.155,0.31-0.138,0.678,0.044,0.973    S22.652,44,23,44h14c0.347,0,0.668-0.18,0.851-0.475s0.199-0.663,0.044-0.973L36,38.764v-2.948c1.162-0.414,2-1.514,2-2.816    c0-1.588-1.243-2.878-2.805-2.98l1.789-9.841c0.052-0.284-0.022-0.577-0.203-0.804c-3.147-3.934-4.73-7.549-5.4-9.375H34    c0.552,0,1-0.447,1-1v-2.45C45.4,8.836,53.444,17.948,53.952,28H51c-0.552,0-1,0.447-1,1v8c0,0.553,0.448,1,1,1h8    c0.552,0,1-0.447,1-1v-8C60,28.447,59.552,28,59,28z M24.618,42l1-2h8.764l1,2H24.618z M35,32c0.551,0,1,0.448,1,1s-0.449,1-1,1    H25c-0.551,0-1-0.448-1-1s0.449-1,1-1h1h8H35z M32,20c0.552,0,1,0.447,1,1v4c0,0.553-0.448,1-1,1h-4c-0.552,0-1-0.447-1-1v-4    c0-0.553,0.448-1,1-1h1v-9h2v9H32z"/><rect x="29" y="22" width="2" height="2"/></g></g><text x="0" y="59" fill="#000000" font-size="5px" font-weight="bold" font-family="'Helvetica Neue', Helvetica, Arial-Unicode, Arial, Sans-serif">Created by Prettycons</text><text x="0" y="64" fill="#000000" font-size="5px" font-weight="bold" font-family="'Helvetica Neue', Helvetica, Arial-Unicode, Arial, Sans-serif">from the Noun Project</text></svg>