<svg xmlns="http://www.w3.org/2000/svg" version="1.1" viewBox="-5.0 -10.0 110.0 135.0">
 <path d="m36.699 76.535h-26.828c-3.5859 0-6.5234-2.9336-6.5234-6.5234v-48.098c0-3.5898 2.9375-6.5273 6.5234-6.5273h16.816l5.5234-6.2852c0.28125-0.32422 0.69141-0.50781 1.1211-0.50781 0.42969 0 0.83594 0.18359 1.1211 0.50781l5.5234 6.2852h12.207c0.80469-2.4961 2.1992-4.793 4.0898-6.6875 3.1406-3.1367 7.3945-4.8984 11.836-4.8984h3.5703c4.4375 0 8.6953 1.7617 11.836 4.8984 3.1367 3.1406 4.9023 7.3984 4.9023 11.84v1.4297c0.44922 0.25781 0.86328 0.57031 1.2344 0.94531 1.0898 1.0859 1.6992 2.5586 1.6992 4.0977v3.9531c0 1.5391-0.60937 3.0117-1.6992 4.0977-0.69141 0.69141-1.5391 1.1914-2.457 1.4609v3.0703c0 0.82031-0.66797 1.4883-1.4922 1.4883h-4.4023c-0.40234 0.69141-0.875 1.3398-1.3984 1.9336l3.3828 8.4414c1.1836 0.21875 2.3203 0.57812 3.3945 1.0547 5.3867 2.3906 9.1406 7.7852 9.1406 14.055v3.0078c0 0.82422-0.66797 1.4922-1.4922 1.4922h-6.8477c-0.50781 3.0938-3.2109 5.4688-6.4414 5.4688h-26.824c0.59766 3.5938 1.7969 6.8633 3.4453 9.5781h2.6641c2.7461 0 4.9883 2.2461 4.9883 4.9883v3.4961c0 0.82422-0.66797 1.4922-1.4922 1.4922h-36.727c-0.82422 0-1.4922-0.66797-1.4922-1.4922v-3.4961c0-2.7422 2.2422-4.9883 4.9883-4.9883h2.6602c1.6523-2.7148 2.8516-5.9844 3.4492-9.5781zm-12.629-58.164h-14.199c-1.9453 0-3.5391 1.5938-3.5391 3.543v48.098c0 1.9453 1.5938 3.5391 3.5391 3.5391h71.168c1.582 0 2.9297-1.0469 3.3828-2.4844h-72.324c-1.6484 0-3-1.3477-3-3v-44.793c0-1.6484 1.3516-3 3-3h10.301zm27.125 58.164h-11.477c-0.53516 3.5195-1.5898 6.7656-3.0508 9.5781h17.574c-1.457-2.8125-2.5156-6.0586-3.0469-9.5781zm-8.6016-58.164 1.6719 1.9023h7.1055c0.011718-0.64063 0.058594-1.2734 0.14062-1.9023zm4.293 4.8867 1.5156 1.7266c0.11328 0.125 0.19922 0.26953 0.26172 0.41797 0.22656-0.78125 0.61719-1.5156 1.1523-2.1445zm1.5508 3.6562c-0.28125 0.33984-0.69922 0.54688-1.1562 0.54688h-5.5977v40.625h2.2812v-1.5195c0-7.5195 5.4023-13.781 12.539-15.109l3.3828-8.4414c-1.5195-1.7148-2.5703-3.8672-2.9375-6.2539h-2.7188c-1.5352 0-3.0117-0.60938-4.0977-1.6992-1.0859-1.0859-1.6992-2.5586-1.6992-4.0977v-3.9531c0-0.03125 0-0.066407 0.003906-0.097657zm-9.7383 41.172v-42.117c0-0.82422 0.66797-1.4922 1.4922-1.4922h3.7969l-10.656-12.133-10.656 12.133h3.7969c0.82422 0 1.4922 0.66797 1.4922 1.4922v42.117zm-13.719 0v-40.625h-5.5977c-0.58594 0-1.1172-0.34375-1.3594-0.87891-0.24219-0.53125-0.14844-1.1562 0.23828-1.5977l1.5156-1.7266h-7.6797c-0.007812 0-0.015625 0.007813-0.015625 0.015626v44.793c0 0.011719 0.007813 0.019532 0.015625 0.019532zm60.453-46.871v-0.67578c0-3.6484-1.4492-7.1484-4.0312-9.7266-2.5781-2.582-6.0742-4.0312-9.7227-4.0312h-3.5703c-3.6484 0-7.1484 1.4492-9.7266 4.0312-1.7891 1.7852-3.0312 4.0117-3.6289 6.4258-0.26562 1.0703-0.40234 2.1797-0.40234 3.3008v0.67578h1.7695c0.44531-2.1797 1.4727-4.2188 3.0078-5.8828 2.332-2.5352 5.6172-3.9727 9.0586-3.9727h3.4102c3.4453 0 6.7305 1.4375 9.0586 3.9727 1.5352 1.6641 2.5664 3.7031 3.0078 5.8828zm0.21875 12.562c0.082031-0.003906 0.16016-0.007813 0.24219-0.019532 0.62109-0.074218 1.2031-0.35547 1.6484-0.80469 0.52734-0.52734 0.82422-1.2422 0.82422-1.9883v-3.9531c0-0.74609-0.29688-1.4609-0.82422-1.9922-0.30859-0.30859-0.68359-0.53906-1.0938-0.67578-0.17969-0.0625-0.36719-0.10156-0.55469-0.125-0.11328-0.015625-0.22656-0.023438-0.33984-0.023438h-1.6562c-0.003907 0.16406-0.015626 0.32813-0.027344 0.48828l-0.75391 9.0938h2.4375 0.097656zm-3.0977 4.3242h1.6562v-1.3398h-1.3711c-0.070313 0.45312-0.16797 0.90234-0.28516 1.3398zm-9.1289 8.7656c-0.88672 0.20312-1.8086 0.3125-2.7539 0.3125h-1.5586c-0.94531 0-1.8672-0.10938-2.75-0.3125l3.5312 5.0742zm-16.758-13.09-0.75-9.0938c-0.015625-0.16016-0.023438-0.32422-0.03125-0.48828h-1.6562c-0.30469 0-0.60938 0.050782-0.89453 0.14844-0.40625 0.13672-0.78516 0.36719-1.0938 0.67578-0.52734 0.53125-0.82422 1.2461-0.82422 1.9922v3.9531c0 0.74609 0.29688 1.4609 0.82422 1.9883 0.52734 0.52734 1.2422 0.82422 1.9883 0.82422zm2.2578-8.918 0.89062 10.777c0.40234 4.8359 4.4414 8.5586 9.2969 8.5586h1.5586c2.75 0 5.2422-1.1953 6.957-3.1133h-7.6094c-0.82422 0-1.4922-0.66797-1.4922-1.4883 0-0.82422 0.66797-1.4922 1.4922-1.4922h9.4062c0.28516-0.77734 0.47266-1.6055 0.54297-2.4648l0.80859-9.75c-1.9961 2.0625-4.582 2.9883-8 2.2891-0.039063-0.007812-0.082032-0.015625-0.12109-0.03125-2.1992-0.64062-3.9219-2.3867-5.0312-5.2812-1.2148 1.2461-2.5469 1.9531-3.9453 2.2695-1.4922 0.33594-3.0859 0.21094-4.7539-0.27344zm24.039 29.574-10.383 13.652h20.258v-1.5195c0-5.0547-3.0312-9.4023-7.3711-11.328-0.79297-0.35547-1.6328-0.625-2.5039-0.80469zm-15.73 13.652-10.207-13.695c-5.7383 1.082-10.078 6.125-10.078 12.176v1.5195zm-5.25-22.285-2.6719 6.6641s2.6406 3.5391 5.2812 7.0859l3.4805-5zm4.4922 16.273c1.8984 2.5469 3.4297 4.6016 3.4297 4.6016l3.4492-4.5391-3.4609-4.9727zm8.7773-2.4297 5.3047-6.9727-2.7539-6.8711-6.0938 8.75zm5.2812-38.656c-0.40234-1.3398-1.1055-2.5859-2.0742-3.6367-1.7656-1.918-4.2539-3.0117-6.8633-3.0117h-3.4102c-2.6094 0-5.0977 1.0938-6.8633 3.0117-1.1523 1.25-1.9297 2.7812-2.2695 4.4141 1.3984 0.51172 2.7305 0.73828 3.9688 0.45703 1.4883-0.33594 2.7773-1.4219 3.9141-3.4258 0.30859-0.54297 0.92188-0.83594 1.5391-0.73438 0.61328 0.097656 1.1016 0.57031 1.2227 1.1797 0.64844 3.2891 1.7539 5.4102 3.7422 6.0234 3.4492 0.67578 5.5664-1.2188 7.0938-4.2773zm-49.945 68.109c-1.1055 0-2.0078 0.90234-2.0078 2.0039v2.0039h33.746v-2.0039c0-1.1016-0.90234-2.0039-2.0039-2.0039z" fill-rule="evenodd"/>
<text x="0.0" y="117.5" font-size="5.0" font-weight="bold" font-family="Arbeit Regular, Helvetica, Arial-Unicode, Arial, Sans-serif" fill="#000000">Created by Critical_icon</text><text x="0.0" y="122.5" font-size="5.0" font-weight="bold" font-family="Arbeit Regular, Helvetica, Arial-Unicode, Arial, Sans-serif" fill="#000000">from Noun Project</text></svg>