<svg xmlns="http://www.w3.org/2000/svg" xmlns:xlink="http://www.w3.org/1999/xlink" xmlns:serif="http://www.serif.com/" viewBox="0 0 32 40" version="1.1" xml:space="preserve" style="" x="0px" y="0px" fill-rule="evenodd" clip-rule="evenodd" stroke-linejoin="round" stroke-miterlimit="2"><g transform="matrix(1,0,0,1,-747.413,-0.568567)"><path d="M755.845,3.784C755.781,3.803 755.721,3.835 755.668,3.879L755.66,3.886C755.65,3.895 755.64,3.904 755.63,3.914L749.057,10.573C748.868,10.765 748.864,11.072 749.049,11.268L752.934,15.381C753.122,15.58 753.434,15.591 753.636,15.406L755.488,13.707L755.488,23.711C755.488,23.987 755.712,24.211 755.988,24.211L765.549,24.211L766.6,26.686C766.66,26.827 766.781,26.933 766.93,26.973L770.358,27.898C770.211,28.094 770.227,28.373 770.405,28.551L772.208,30.354C772.403,30.549 772.72,30.549 772.915,30.354L777.766,25.503C777.961,25.307 777.961,24.991 777.766,24.796L775.963,22.993C775.785,22.815 775.507,22.799 775.311,22.945L774.385,19.517C774.345,19.369 774.239,19.247 774.098,19.187L771.033,17.885L771.033,13.707L772.885,15.406C773.087,15.591 773.399,15.58 773.587,15.381L777.472,11.268C777.657,11.072 777.653,10.765 777.464,10.573L770.891,3.914C770.881,3.904 770.871,3.895 770.861,3.886L770.85,3.877C770.796,3.832 770.734,3.801 770.67,3.782L766.77,2.657C766.524,2.586 766.264,2.712 766.168,2.949C765.577,4.401 764.403,5.164 763.198,5.173C761.988,5.183 760.776,4.432 760.116,2.935C760.013,2.704 759.754,2.585 759.512,2.659L755.845,3.784ZM775.61,24.053L776.705,25.149C776.705,25.149 772.562,29.293 772.562,29.293C772.562,29.293 771.466,28.197 771.466,28.197L775.61,24.053ZM764.531,16.411L769.588,21.468C769.802,21.358 770.045,21.297 770.301,21.297C771.17,21.297 771.875,22.002 771.875,22.871C771.875,23.739 771.17,24.444 770.301,24.444C769.433,24.444 768.728,23.739 768.728,22.871C768.728,22.623 768.785,22.389 768.887,22.181L763.824,17.118L763.683,17.26C763.683,17.26 767.425,26.071 767.425,26.071L771.168,27.081L774.494,23.755L773.483,20.012C773.483,20.012 764.672,16.27 764.672,16.27L764.531,16.411ZM770.301,22.297C770.618,22.297 770.875,22.554 770.875,22.871C770.875,23.187 770.618,23.444 770.301,23.444C769.985,23.444 769.728,23.187 769.728,22.871C769.728,22.554 769.985,22.297 770.301,22.297ZM770.033,17.46L770.033,4.639C770.033,4.639 766.907,3.737 766.907,3.737C766.092,5.35 764.652,6.162 763.206,6.173C761.759,6.184 760.281,5.394 759.396,3.741C759.396,3.741 756.488,4.633 756.488,4.633C756.488,4.633 756.488,23.211 756.488,23.211L765.124,23.211L762.63,17.34C762.551,17.152 762.593,16.935 762.737,16.791L764.204,15.324C764.348,15.18 764.565,15.138 764.753,15.218L770.033,17.46ZM771.033,5.482L771.033,12.35L773.198,14.336C773.198,14.336 776.413,10.932 776.413,10.932L771.033,5.482ZM755.488,5.482L750.108,10.932C750.108,10.932 753.323,14.336 753.323,14.336L755.488,12.35L755.488,5.482Z"/></g><text x="0" y="47" fill="#000000" font-size="5px" font-weight="bold" font-family="'Helvetica Neue', Helvetica, Arial-Unicode, Arial, Sans-serif">Created by rendicon</text><text x="0" y="52" fill="#000000" font-size="5px" font-weight="bold" font-family="'Helvetica Neue', Helvetica, Arial-Unicode, Arial, Sans-serif">from the Noun Project</text></svg>