<svg xmlns="http://www.w3.org/2000/svg" xmlns:xlink="http://www.w3.org/1999/xlink" version="1.1" x="0px" y="0px" viewBox="0 0 1000 1250" enable-background="new 0 0 1000 1000" xml:space="preserve"><path d="M722.395,668.008c-1.618-0.934-3.353-1.668-5.155-2.184c-0.825-0.236-1.646-0.469-2.429-0.689  c-2.293-0.65-4.892-1.387-7.739-2.236c-0.028-0.01-0.057-0.018-0.086-0.025c-0.01-0.004-0.02-0.006-0.029-0.01  c-23.673-7.002-75.461-21.811-90.256-25.213c-10.374-2.387-20.913,2.613-25.631,12.156c-9.72,19.672-29.151,51.967-29.345,52.287  c-7.939,13.133-18.655,16.551-35.832,11.43c-1.962-0.586-4.615-1.229-8.753-2.217c-17.386-4.16-53.559-12.813-97.371-38.109  c-3.226-1.861-6.49-3.813-9.701-5.797c-43.25-26.732-76.342-63.148-88.563-77.564c-9.829-11.613-9.661-21.818,0.605-36.395  c2.929-4.164,6.191-9.947,9.646-16.072l0.029-0.051c1.71-3.035,3.476-6.164,5.211-9.1c0.024-0.041,0.048-0.08,0.07-0.119  c3.77-6.428,5.072-10.937,7.042-17.757l0.035-0.118l0.154-0.536c1.918-6.67,0.736-13.756-3.246-19.443  c-2.278-3.253-7.458-11.472-18.733-29.449c-12.394-19.76-27.819-44.352-36.854-57.696c-0.085-0.126-0.17-0.248-0.256-0.37  l-0.08-0.115c-1.606-2.361-3.22-4.471-4.787-6.251c-1.648-1.873-3.578-3.453-5.735-4.699c-4.357-2.516-9.501-3.531-14.487-2.86  l-0.239,0.032l-0.064,0.008c-6.867,0.925-14.457,2.498-22.493,3.916c-0.011,0.002-0.022,0.239-0.034,0.239c-0.002,0-0.004,0-0.006,0  l-1.742,0.075c-3.786,0.665-16.875,3.86-26.165,18.464c-0.623,0.978-1.317,1.984-2.074,3.142  c-5.316,8.138-13.35,20.406-18.992,37.939c-6.77,21.04-8.054,43.879-3.815,67.915c4.359,24.725,17.222,51.896,37.196,78.587  c10.608,14.178,22.667,27.635,35.844,40.01l0.138,0.127c0.032,0.031,0.065,0.062,0.097,0.091c0.717,0.674,1.83,1.825,3.664,3.726  c6.688,6.922,22.345,23.133,44.724,42.383c27.855,23.959,56.699,44.607,85.732,61.371c38.551,22.256,77.102,37.418,114.584,45.061  c45.897,9.354,80.52,13.816,105.845,13.648c21.299-0.143,32.748-3.586,42.85-6.623l0.089-0.027c2.199-0.662,4.472-1.344,6.743-1.963  c8.809-2.393,24.981-11.568,41.242-26.674c16.213-15.063,26.723-30.82,28.834-43.232c3.133-18.463,2.604-32.896,1.609-41.756  C732.879,678.074,728.658,671.625,722.395,668.008z"/><path d="M817.161,440.62c-11.596-43.282-31.333-83.008-58.658-118.075c-26.385-33.86-58.692-61.958-96.025-83.513  c-37.333-21.554-77.819-35.484-120.337-41.404c-44.032-6.13-88.303-3.358-131.585,8.238c-12.2,3.27-19.44,15.811-16.171,28.012  c3.269,12.2,15.81,19.44,28.01,16.171c73.854-19.79,150.996-9.634,217.213,28.596c66.217,38.23,113.581,99.958,133.371,173.813  c1.634,6.1,5.587,10.96,10.655,13.887c5.07,2.927,11.255,3.92,17.355,2.285C813.19,465.362,820.43,452.821,817.161,440.62z"/><path d="M648.202,485.892c3.269,12.201,15.811,19.442,28.011,16.172s19.441-15.811,16.172-28.011  c-14.021-52.328-47.581-96.063-94.496-123.15c-46.916-27.086-101.571-34.281-153.899-20.26  c-12.201,3.269-19.441,15.811-16.171,28.01c1.635,6.102,5.587,10.961,10.656,13.888s11.254,3.919,17.354,2.285  c40.526-10.859,82.855-5.287,119.19,15.691C611.353,411.494,637.343,445.366,648.202,485.892z"/><path d="M542.135,447.472C542.134,447.472,542.136,447.473,542.135,447.472c-21.12-12.193-45.729-15.433-69.284-9.121  c-12.201,3.27-19.441,15.81-16.172,28.011c3.27,12.2,15.811,19.441,28.011,16.171c11.757-3.15,24.035-1.534,34.574,4.552  c10.54,6.085,18.08,15.91,21.229,27.666c1.634,6.102,5.586,10.961,10.656,13.889c5.068,2.924,11.254,3.918,17.354,2.283  c12.2-3.268,19.44-15.809,16.173-28.01C578.364,479.356,563.256,459.667,542.135,447.472z"/><text x="0" y="1015" fill="#000000" font-size="5px" font-weight="bold" font-family="'Helvetica Neue', Helvetica, Arial-Unicode, Arial, Sans-serif">Created by rasendria</text><text x="0" y="1020" fill="#000000" font-size="5px" font-weight="bold" font-family="'Helvetica Neue', Helvetica, Arial-Unicode, Arial, Sans-serif">from the Noun Project</text></svg>