<svg xmlns="http://www.w3.org/2000/svg" xmlns:xlink="http://www.w3.org/1999/xlink" xml:space="preserve" version="1.0" style="shape-rendering:geometricPrecision;text-rendering:geometricPrecision;image-rendering:optimizeQuality;" viewBox="0 0 369.16 403.40000000000003" x="0px" y="0px" fill-rule="evenodd" clip-rule="evenodd"><defs><style type="text/css">
   
    .fil0 {fill:black}
   
  </style></defs><g><path class="fil0" d="M60.27 63.98l53.03 0 14.31 -53.39c1.7,-6.34 7.24,-10.59 13.8,-10.59l41.53 0c3.06,0 5.7,1.3 7.57,3.74 1.86,2.43 2.44,5.32 1.64,8.28l-13.92 51.97 64.91 0 14.31 -53.39c1.7,-6.34 7.24,-10.59 13.8,-10.59l41.53 0c3.06,0 5.7,1.3 7.57,3.74 1.86,2.43 2.44,5.32 1.64,8.28l-13.93 51.97 51.55 0c3.06,0 5.7,1.3 7.57,3.74 1.86,2.43 2.44,5.32 1.64,8.28l-11.34 42.32c-1.7,6.33 -7.24,10.59 -13.8,10.59l-53.03 0 -17.39 64.92 51.55 0c3.07,0 5.71,1.3 7.57,3.73 1.86,2.43 2.44,5.32 1.64,8.28l-11.34 42.32c-1.7,6.33 -7.24,10.58 -13.8,10.58l-53.03 0 -14.31 53.4c-1.7,6.33 -7.24,10.59 -13.8,10.59l-41.53 0c-3.06,0 -5.7,-1.3 -7.57,-3.73 -1.86,-2.43 -2.44,-5.32 -1.64,-8.28l13.92 -51.97 -64.91 0 -14.31 53.4c-1.7,6.33 -7.24,10.59 -13.8,10.59l-41.53 0c-3.07,0 -5.7,-1.3 -7.57,-3.73 -1.86,-2.43 -2.44,-5.32 -1.64,-8.28l13.93 -51.97 -51.55 0c-3.06,0 -5.7,-1.3 -7.57,-3.73 -1.86,-2.43 -2.44,-5.32 -1.64,-8.28l11.34 -42.32c1.7,-6.34 7.24,-10.58 13.8,-10.58l53.02 0 17.39 -64.92 -51.55 0c-3.06,0 -5.7,-1.3 -7.57,-3.74 -1.86,-2.43 -2.44,-5.32 -1.64,-8.28l11.33 -42.32c1.7,-6.33 7.24,-10.59 13.8,-10.59zm165.47 64.92l-64.92 0 -17.4 64.92 64.92 0 17.4 -64.92z"/></g><text x="0" y="337.72" fill="#000000" font-size="5px" font-weight="bold" font-family="'Helvetica Neue', Helvetica, Arial-Unicode, Arial, Sans-serif">Created by BÖCK</text><text x="0" y="342.72" fill="#000000" font-size="5px" font-weight="bold" font-family="'Helvetica Neue', Helvetica, Arial-Unicode, Arial, Sans-serif">from the Noun Project</text></svg>