<svg xmlns="http://www.w3.org/2000/svg" version="1.1" viewBox="-5.0 -10.0 110.0 135.0">
 <path d="m79.699 81h-0.60156l-1-0.10156c-2.8984-0.30078-5.8008-1.1992-8.3984-2.5-0.60156-0.30078-0.89844-1.1016-0.60156-1.6992 0.30078-0.60156 1.1016-0.89844 1.6992-0.60156 2.3984 1.1992 5 1.8984 7.6016 2.3008l1 0.10156c0.80078 0.10156 1.6016-0.19922 2.1992-0.89844 0.5-0.69922 0.60156-1.5 0.30078-2.3008l-1.1992-3.1992c-0.39844-1.1016 0-2.3008 1-2.8984l2.8984-1.6992c0.10156 0 0.10156-0.10156 0-0.10156l-0.39844-1c-0.5-1.1016 0-2.5 1-3.1992 0 0 0.10156-0.10156 0-0.10156l-1-2.3984c-0.5-1.1016 0-2.3984 1.1016-3l2.1992-1.1992c0.5-0.19922 0.80078-0.69922 0.89844-1.1992 0.10156-0.5-0.10156-1-0.39844-1.3984l-4.1992-4.3984c-1.8008-1.8984-1.8984-4.8984-0.10156-6.8984 1.6016-1.8008 2.1992-4.1016 1.6992-6.3008-0.80078-3.6992-2.6016-9.1016-6.8984-14-5.8008-6.6016-13.699-10.102-23.398-10.5-9-0.30078-16.301 1.5-21.801 5.6016-0.60156 0.39844-1.3008 0.30078-1.6992-0.30078-0.39844-0.60156-0.30078-1.3008 0.30078-1.6992 6-4.3984 13.898-6.5 23.398-6.1016 10.5 0.39844 19 4.1992 25.301 11.301 3.6992 4.1992 6.1992 9.3984 7.3984 15.102 0.60156 3-0.19922 6.1992-2.1992 8.5-0.89844 1.1016-0.89844 2.6016 0 3.5l4.1992 4.3984c0.89844 0.89844 1.3008 2.1992 1.1016 3.5-0.19922 1.3008-1 2.3984-2.1992 3l-2.1016 1.1016 1 2.3008c0.5 1.1992 0.10156 2.5-1 3.1992 0 0-0.10156 0.10156 0 0.10156l0.39844 1c0.5 1.1992 0 2.5-1.1016 3.1992l-3.0977 1.7891 1.1992 3.1016c0.60156 1.6016 0.39844 3.3984-0.69922 4.8008-0.89844 1.0977-2.3008 1.7969-3.8008 1.7969zm3.1992-9.6016z"/>
 <path d="m66.102 90.801h-28.703c-2 0-3.8008-1-4.8008-2.6992-1-1.6992-1.1016-3.6992-0.30078-5.5 1.8984-3.8008 2.6016-7.5 2.1016-11-0.19922-1.1992-0.39844-2.1992-0.89844-3.1992-0.30078-0.60156 0-1.3984 0.69922-1.6016 0.60156-0.30078 1.3984 0 1.6016 0.69922 0.5 1.1992 0.80078 2.3984 1 3.8008 0.60156 4-0.19922 8.1992-2.3008 12.5-0.5 1-0.39844 2.1016 0.19922 3.1016 0.60156 0.89844 1.6016 1.5 2.6992 1.5h28.602c-1.3008-3.5-0.5-7.3984 1.8984-10.199l1.1992-1.3984c0.5-0.5 1.1992-0.60156 1.8008-0.10156 0.5 0.5 0.60156 1.1992 0.10156 1.8008l-1.1992 1.3984c-1.8984 2.1016-2.3984 5.1016-1.3984 7.8008 0.30078 0.69922 0.19922 1.5-0.30078 2.1992-0.5 0.49609-1.2031 0.89844-2 0.89844z"/>
 <path d="m48.699 34.898c-0.5 0-1-0.30078-1.1992-0.80078-2.1992-6.1016-5.6016-11.398-7.3008-13.898-1.6992 2.3984-5.1016 7.8008-7.3008 13.898-0.19922 0.60156-1 1-1.6016 0.80078-0.60156-0.19922-1-1-0.80078-1.6016 3.1016-8.6992 8.3984-15.602 8.6992-15.898 0.5-0.60156 1.5-0.60156 2 0 0.19922 0.30078 5.6016 7.3008 8.6992 15.898 0.19922 0.60156-0.10156 1.3984-0.80078 1.6016-0.09375-0.097657-0.19531 0-0.39453 0z"/>
 <path d="m40.199 50.898c-0.80078-0.10156-1.3008-0.69922-1.1992-1.3008 0.10156-1.8984 0.39844-3.6016 0.80078-5.1992 0.39844-1.6992 1.1016-3.1992 1.8008-4.5 1.5-2.6016 3.8984-5 7.1992-7.1992 5.3008-3.6016 10.898-5.3984 11.102-5.5 0.30078-0.10156 0.69922-0.10156 1 0.10156 0.30078 0.19922 0.5 0.5 0.60156 0.80078 0.10156 0.30078 1.6016 7.3008 0.60156 14.301-0.10156 0.69922-0.69922 1.1992-1.3984 1.1016-0.69922-0.10156-1.1992-0.69922-1.1016-1.3984 0.60156-4.8008 0-9.6992-0.39844-12-1.8984 0.69922-5.6992 2.3008-9.1016 4.6992-3 2-5.1016 4.1992-6.3984 6.3984-0.60156 1.1016-1.1992 2.3984-1.6016 3.8984-0.39844 1.3984-0.60156 3-0.80078 4.8008 0.09375 0.49609-0.40625 0.99609-1.1055 0.99609z"/>
 <path d="m46.898 61.602c-3.8008 0-6.6992-0.5-6.8984-0.5-0.39844-0.10156-0.69922-0.30078-0.89844-0.60156-0.19922-0.30078-0.19922-0.69922-0.10156-1 0.19922-0.5 4.1992-11.5 11.699-15.801 7.3984-4.3008 19.102-2.3008 19.5-2.1992 0.39844 0.10156 0.69922 0.30078 0.89844 0.60156 0.19922 0.30078 0.19922 0.69922 0.10156 1.1016-0.19922 0.5-4.1992 11.5-11.699 15.801-3.6992 2.0977-8.6016 2.5977-12.602 2.5977zm-4.8984-2.8008c3.3008 0.39844 11.199 0.89844 16.301-2.1016 5.1992-3 8.6992-10 10-13.102-3.3008-0.29688-11.199-0.79688-16.301 2.1016-5.1992 3-8.6992 10.102-10 13.102zm16.898-1z"/>
 <path d="m40.199 61.102c-0.69922 0-1.1992-0.60156-1.1992-1.1992v-3.1992-1.8984c0.10156-1.8008 0.10156-3.3984 0-5-0.10156-1.6992-0.39844-3.3008-0.80078-4.8008-0.39844-1.5-0.89844-2.8008-1.6016-3.8984-1.3008-2.1992-3.5-4.3984-6.3984-6.3984-3.5-2.3984-7.1992-3.8984-9.1016-4.6992-0.39844 2.3008-1 7.1992-0.39844 12 0.10156 0.69922-0.39844 1.3008-1.1016 1.3984-0.69922 0.10156-1.3008-0.39844-1.3984-1.1016-0.89844-7 0.60156-14 0.60156-14.301 0.10156-0.30078 0.30078-0.60156 0.60156-0.80078 0.30078-0.19922 0.69922-0.19922 1-0.10156 0.19922 0.10156 5.8984 1.8984 11.102 5.5 3.3008 2.1992 5.6992 4.6016 7.1992 7.1992 0.80078 1.3008 1.3984 2.8008 1.8008 4.5 0.39844 1.6016 0.69922 3.3008 0.80078 5.1992 0.10156 1.6992 0.10156 3.5 0 5.3008v1.8008 3.1992c0.19531 0.69922-0.40625 1.3008-1.1055 1.3008z"/>
 <path d="m33.5 61.602c-4 0-8.8984-0.5-12.602-2.6992-7.3984-4.3008-11.5-15.402-11.699-15.902-0.10156-0.30078-0.10156-0.69922 0.10156-1.1016 0.19922-0.30078 0.5-0.5 0.89844-0.60156 0.19922 0 5.1016-0.89844 10.602-0.39844 3.6016 0.30078 6.6016 1.1992 9 2.6016 7.1016 4.1016 11.199 14.602 11.699 15.801v0.10156 0.30078c0 0.5-0.30078 1-0.80078 1.1992-0.10156 0-0.10156 0.10156-0.19922 0.10156h-0.10156c-0.59766 0.19531-3.2969 0.59766-6.8984 0.59766zm-21.301-18c1.3008 3 4.8008 10.102 10 13.102s13 2.5 16.301 2.1016c-1.3008-3-4.8008-10.102-10-13.102-2-1.1992-4.6992-1.8984-8-2.1992-3.3008-0.30469-6.5-0.10547-8.3008 0.097656z"/>
<text x="0.0" y="117.5" font-size="5.0" font-weight="bold" font-family="Arbeit Regular, Helvetica, Arial-Unicode, Arial, Sans-serif" fill="#000000">Created by Santu Guin</text><text x="0.0" y="122.5" font-size="5.0" font-weight="bold" font-family="Arbeit Regular, Helvetica, Arial-Unicode, Arial, Sans-serif" fill="#000000">from Noun Project</text></svg>