<svg xmlns="http://www.w3.org/2000/svg" version="1.1" viewBox="-5.0 -10.0 110.0 135.0">
 <path d="m13.988 33.969c-0.75 0-1.3594-0.60938-1.3594-1.3594s0.60938-1.3594 1.3594-1.3594h1.7109c0.75 0 1.3594 0.60938 1.3594 1.3594s-0.60938 1.3594-1.3594 1.3594zm9.3398 0c-0.75 0-1.3594-0.60938-1.3594-1.3594s0.60938-1.3594 1.3594-1.3594h1.7109c0.75 0 1.3594 0.60938 1.3594 1.3594s-0.60938 1.3594-1.3594 1.3594zm9.332 0c-0.75 0-1.3594-0.60938-1.3594-1.3594s0.60938-1.3594 1.3594-1.3594h1.7109c0.75 0 1.3594 0.60938 1.3594 1.3594s-0.60938 1.3594-1.3594 1.3594zm18.75 25.312c-0.53125-0.53125-0.53125-1.3984 0-1.9297s1.3984-0.53125 1.9297 0l7.0586 7.0586c0.53125 0.53125 0.53125 1.3984 0 1.9297l-7.0586 7.0586c-0.53125 0.53125-1.3984 0.53125-1.9297 0s-0.53125-1.3984 0-1.9297l6.0898-6.0898-6.0898-6.0898zm-19.082-1.9297c0.53125-0.53125 1.3984-0.53125 1.9297 0s0.53125 1.3984 0 1.9297l-6.0898 6.0898 6.0898 6.0898c0.53125 0.53125 0.53125 1.3984 0 1.9297s-1.3984 0.53125-1.9297 0l-7.0586-7.0586c-0.53125-0.53125-0.53125-1.3984 0-1.9297l7.0586-7.0586zm11.852-2.2734c0.19141-0.73047 0.94141-1.1602 1.6719-0.96094 0.73047 0.19141 1.1602 0.94141 0.96094 1.6719l-5.3281 19.898c-0.19141 0.73047-0.94141 1.1602-1.6719 0.96094-0.73047-0.19922-1.1602-0.94141-0.96094-1.6719zm29.582-31.727c-3-4.2891-8.9492-5.3398-13.23-2.3281-4.2891 3-5.3398 8.9492-2.3281 13.23 3 4.2891 8.9492 5.3398 13.23 2.3281 4.2891-3 5.3398-8.9492 2.3281-13.23zm-5.6602-6.5898c6.6406 1.1719 11.09 7.5195 9.9102 14.16-1.1719 6.6406-7.5195 11.09-14.16 9.9102-6.6406-1.1719-11.09-7.5195-9.9102-14.16 1.1719-6.6406 7.5195-11.09 14.16-9.9102zm12.75 1.6172c5.7383 8.1992 3.7305 19.551-4.4609 25.289-3.8008 2.6602-8.6289 3.8711-13.57 3-4.8789-0.85938-8.9492-3.5898-11.621-7.3281-0.039063-0.070313-0.078125-0.12891-0.12891-0.19141-2.6406-3.8008-3.8281-8.6016-2.9609-13.52 0.87109-4.9219 3.6484-9.0508 7.4609-11.719 8.1992-5.7383 19.551-3.7305 25.289 4.4609zm-33.273 20.293c-1.9414-3.6094-2.8398-7.8008-2.3594-12.121h-34.688c-1.5391 0-2.8008 1.2617-2.8008 2.8008v9.3281h39.852zm44.121 21.27-7.6211-10.891-5.2812 3.6914 7.6211 10.891c1.6016 2.2812 5.2891 1.5898 5.8008-1.2891 0.14062-0.82031-0.019531-1.6914-0.51953-2.4102zm-13.527-10.07 3.4414-2.4102-2-2.8516c-1.0703 0.92188-2.2109 1.7188-3.4414 2.4102zm-0.23047 6.3672-2.1406-3.0586c-0.37891-0.55078-0.30859-1.2812 0.14844-1.7383l-2.2812-3.2383c-8.6992 3.4609-18.672 0.67969-24.34-6.8086l-41.598-0.003906v45.16c0 1.5391 1.2617 2.8008 2.8008 2.8008h64.609c1.5391 0 2.8008-1.2617 2.8008-2.8008zm7.5898-9.8594c-0.37891-0.55078-1.0898-0.73047-1.6797-0.46094l-2.2812-3.2383c6.4297-7.1992 7.0508-17.93 1.5117-25.852-6.6094-9.4492-19.621-11.75-29.07-5.1289-4.0312 2.8203-7.0703 7.0508-8.3086 12.129h-35.172c-3.0391 0-5.5312 2.4805-5.5312 5.5312v57.211c0 3.0391 2.4805 5.5312 5.5312 5.5312h64.609c3.0391 0 5.5312-2.4805 5.5312-5.5312v-26.41l3.4609 4.9492c0.85938 1.3594 2.4102 2.2812 3.9102 2.5391 3.2305 0.57031 6.3008-1.5781 6.8711-4.8203 0.26172-1.4883-0.039062-3.0898-0.98047-4.4297l-8.3984-12.012zm-16.141-21.609c0.51953-0.53906 1.3789-0.57031 1.9219-0.050781 0.53906 0.51953 0.57031 1.3789 0.050781 1.9219l-5.8906 6.1719c-0.53906 0.57031-1.4414 0.55859-1.9688 0l-2.8984-3.0391c-0.51953-0.53906-0.5-1.4102 0.050781-1.9219 0.53906-0.51953 1.4102-0.5 1.9219 0.050782l1.9219 2.0117 4.8984-5.1406z" fill-rule="evenodd"/>
<text x="0.0" y="117.5" font-size="5.0" font-weight="bold" font-family="Arbeit Regular, Helvetica, Arial-Unicode, Arial, Sans-serif" fill="#000000">Created by Nanang Hermawan</text><text x="0.0" y="122.5" font-size="5.0" font-weight="bold" font-family="Arbeit Regular, Helvetica, Arial-Unicode, Arial, Sans-serif" fill="#000000">from Noun Project</text></svg>