<svg xmlns="http://www.w3.org/2000/svg" data-name="Layer 1" viewBox="0 0 100 125" x="0px" y="0px"><defs><style>.cls-1{fill-rule:evenodd;}</style></defs><title>a</title><path class="cls-1" d="M81.481,13.307H78.007v1.77h0a1.028,1.028,0,0,1-.748.99,8.948,8.948,0,0,0-.963.336,8.753,8.753,0,0,0-.854.407,1.032,1.032,0,0,1-1.3-.131l-1.253-1.253-2.457,2.457,1.253,1.252,0,0a1.028,1.028,0,0,1,.171,1.225,8.979,8.979,0,0,0-.768,1.845,1.032,1.032,0,0,1-1,.791h-1.77v3.474h1.77a1.031,1.031,0,0,1,.991.748,8.733,8.733,0,0,0,.335.963,8.991,8.991,0,0,0,.407.854,1.031,1.031,0,0,1-.131,1.3l-1.253,1.253,2.457,2.457,1.253-1.253,0,0a1.028,1.028,0,0,1,1.225-.171,9,9,0,0,0,.925.445,8.668,8.668,0,0,0,.92.323,1.031,1.031,0,0,1,.791,1v1.77h3.474V34.4h0a1.029,1.029,0,0,1,.748-.99,9.062,9.062,0,0,0,1.818-.743,1.032,1.032,0,0,1,1.3.131L86.6,34.046l2.457-2.457L87.8,30.337l0,0a1.026,1.026,0,0,1-.172-1.225,9.085,9.085,0,0,0,.445-.924,8.543,8.543,0,0,0,.323-.921,1.032,1.032,0,0,1,1-.791h1.77V23H89.4a1.03,1.03,0,0,1-.99-.748,9.062,9.062,0,0,0-.743-1.818,1.032,1.032,0,0,1,.131-1.3l1.253-1.252L86.6,15.426l-1.252,1.253,0,0a1.028,1.028,0,0,1-1.225.171,8.979,8.979,0,0,0-1.845-.768,1.032,1.032,0,0,1-.791-1v-1.77Zm-3.836-2.061h4.2a1.7,1.7,0,0,1,1.2.5,1.017,1.017,0,0,1,.082.092,1.689,1.689,0,0,1,.416,1.108v1.386c.148.054.294.111.44.172s.289.124.433.191l.981-.981a1.056,1.056,0,0,1,.087-.078,1.691,1.691,0,0,1,2.312.078l0,0,0,0,2.968,2.968a1.7,1.7,0,0,1,0,2.4l-.981.981q.1.216.191.433c.061.146.118.292.172.44h1.386a1.7,1.7,0,0,1,1.2.5,1.068,1.068,0,0,1,.078.088,1.686,1.686,0,0,1,.42,1.113v4.2a1.7,1.7,0,0,1-1.7,1.7H90.149c-.054.148-.111.294-.172.44s-.123.289-.191.433l.981.981a1.7,1.7,0,0,1,0,2.4L87.8,35.759a.926.926,0,0,1-.088.078,1.69,1.69,0,0,1-2.311-.078l0,0,0,0-.981-.981q-.216.1-.433.191c-.145.06-.292.118-.44.172v1.386a1.7,1.7,0,0,1-.5,1.2,1.159,1.159,0,0,1-.092.081,1.69,1.69,0,0,1-1.109.417h-4.2a1.7,1.7,0,0,1-1.2-.5,1.068,1.068,0,0,1-.078-.088,1.69,1.69,0,0,1-.42-1.113V35.141c-.147-.054-.294-.111-.439-.172s-.29-.124-.434-.191l-.981.981a1.056,1.056,0,0,1-.087.078,1.7,1.7,0,0,1-2.315-.078l-2.969-2.968a1.089,1.089,0,0,1-.078-.088,1.69,1.69,0,0,1,.078-2.311l0,0,0,0,.981-.981q-.1-.216-.191-.433c-.06-.146-.118-.292-.172-.44H67.954a1.7,1.7,0,0,1-1.2-.5,1.011,1.011,0,0,1-.082-.093,1.69,1.69,0,0,1-.417-1.108v-4.2a1.7,1.7,0,0,1,1.7-1.7h1.385c.054-.148.112-.294.172-.44s.124-.289.191-.433l-.981-.981A1.056,1.056,0,0,1,68.643,19a1.69,1.69,0,0,1-.419-1.114h0a1.694,1.694,0,0,1,.493-1.2l2.969-2.969a1.695,1.695,0,0,1,2.4,0l0,0,0,0,.981.981q.216-.1.433-.191c.146-.06.292-.118.44-.172V12.945a1.7,1.7,0,0,1,.5-1.2l0,0a1.7,1.7,0,0,1,1.2-.5Zm4.584,11.006a3.514,3.514,0,1,1-2.485-1.029,3.5,3.5,0,0,1,2.485,1.029Zm-2.485-3.091A5.574,5.574,0,1,1,75.8,20.794a5.562,5.562,0,0,1,3.942-1.633ZM14.665,70.834,18.121,74.3V70.834ZM27.471,11.846H23.926a.453.453,0,0,0-.293.09c-.02.017-.032.02-.032.023V18.7s.012.006.032.023a.459.459,0,0,0,.293.09h21.74a.453.453,0,0,0,.293-.09c.02-.017.032-.02.032-.023V11.959s-.012-.006-.032-.023a.453.453,0,0,0-.293-.09H42.121v0a1.027,1.027,0,0,1-1.014-.863,4.192,4.192,0,0,0-1.983-2.722,8.423,8.423,0,0,0-8.656,0,4.227,4.227,0,0,0-1.972,2.66,1.03,1.03,0,0,1-1.025.928Zm6.515,22.078a1.031,1.031,0,1,1,0-2.061h15.82a1.031,1.031,0,1,1,0,2.061Zm0-5.308a1.031,1.031,0,1,1,0-2.061h15.82a1.031,1.031,0,1,1,0,2.061Zm-5.21-3.159.633-.5a1.027,1.027,0,0,1,1.264,1.619l-1.895,1.48v6.9a1.03,1.03,0,0,1-1.03,1.03H18.311a1.031,1.031,0,0,1-1.031-1.03V25.521a1.032,1.032,0,0,1,1.031-1.031h9.437a1.031,1.031,0,0,1,1.028.967Zm-7.62,4.52a1.028,1.028,0,0,1,1.506-1.4l.892.962,3.163-2.472v-.514H19.341v7.375h7.376V29.672l-2.6,2.031a1.029,1.029,0,0,1-1.429-.074l-1.533-1.652Zm12.83,19.431a1.031,1.031,0,1,1,0-2.061H49.768a1.031,1.031,0,1,1,0,2.061Zm0-5.308a1.031,1.031,0,1,1,0-2.061h15.82a1.031,1.031,0,1,1,0,2.061Zm-5.21-3.159.633-.5a1.027,1.027,0,0,1,1.264,1.619l-1.895,1.48v6.9a1.03,1.03,0,0,1-1.03,1.03H18.311a1.031,1.031,0,0,1-1.031-1.03V41.005a1.032,1.032,0,0,1,1.031-1.031h9.437a1.031,1.031,0,0,1,1.028.967Zm-7.62,4.52a1.028,1.028,0,0,1,1.506-1.4l.892.962,3.163-2.472v-.514H19.341v7.375h7.376V45.156l-2.6,2.031a1.029,1.029,0,0,1-1.429-.074l-1.533-1.652Zm7.62,10.964.633-.495a1.027,1.027,0,0,1,1.264,1.619l-1.895,1.48v6.9a1.03,1.03,0,0,1-1.03,1.03H18.311a1.031,1.031,0,0,1-1.031-1.03V56.489a1.032,1.032,0,0,1,1.031-1.031h9.437a1.031,1.031,0,0,1,1.028.967Zm-7.62,4.52a1.028,1.028,0,0,1,1.506-1.4l.892.962,3.163-2.472V57.52H19.341V64.9h7.376V60.64l-2.6,2.031a1.029,1.029,0,0,1-1.429-.074l-1.533-1.652ZM39.51,75.756H20.182V70.547a1.782,1.782,0,0,0-1.772-1.774H13.217V18.793a.282.282,0,0,1,.082-.2.274.274,0,0,1,.2-.079H21.54V18.7a2.077,2.077,0,0,0,.764,1.593,2.523,2.523,0,0,0,1.622.581h21.74a2.521,2.521,0,0,0,1.622-.581,2.077,2.077,0,0,0,.764-1.593v-.185H56.1a.271.271,0,0,1,.2.079.282.282,0,0,1,.082.2V53.731l-6.566,3.792H33.986a1.031,1.031,0,1,0,0,2.061H46.235L40.61,62.831H33.986a1.031,1.031,0,1,0,0,2.061H39.51V75.756Zm0,4.276H11.232a2.416,2.416,0,0,1-2.4-2.406V16.643a2.414,2.414,0,0,1,2.4-2.405H21.54v2.214H13.494a2.351,2.351,0,0,0-2.338,2.341V69.8h0a1.02,1.02,0,0,0,.3.725l6.911,6.93a1.028,1.028,0,0,0,.782.36H39.51v2.214Zm18.927-26.77,2.328,1.345V16.643a2.414,2.414,0,0,0-2.405-2.405H48.052v2.214H56.1a2.353,2.353,0,0,1,2.339,2.341V53.262Zm-.05,41.561A1.02,1.02,0,0,1,57.81,95a1.035,1.035,0,0,1-.6-.19l-8.552-4.938v0l-8.634-4.985a1.027,1.027,0,0,1-.513-.89h0V82.093H11.232a4.478,4.478,0,0,1-4.466-4.467V16.643a4.476,4.476,0,0,1,4.466-4.466H21.54v-.218a2.077,2.077,0,0,1,.764-1.593,2.528,2.528,0,0,1,1.622-.581h2.751a6.514,6.514,0,0,1,2.672-3.25,10.432,10.432,0,0,1,10.894,0,6.509,6.509,0,0,1,2.672,3.25h2.751a2.526,2.526,0,0,1,1.622.581,2.077,2.077,0,0,1,.764,1.593v.218H58.36a4.476,4.476,0,0,1,4.466,4.466V55.8l2.1,1.21.017.009L75.6,63.169a1.028,1.028,0,0,1,.513.889h0V84a1.032,1.032,0,0,1-.6.938l-8.549,4.935v0l-8.573,4.949ZM74.049,65.838l-15.208,8.78V92.187L65.93,88.1h0l8.118-4.687V65.838Zm-25.861,3.82-.123,4.008,2.427,1.4.142-4-2.446-1.412ZM64.417,59.09,49.262,67.908,51.678,69.3,66.79,60.46l-.86-.5-1.513-.873ZM47.21,66.724l15.155-8.819-1.019-.588a1.1,1.1,0,0,1-.128-.075l-3.41-1.968L49.744,59.93l-.053.033-7.1,4.1,4.615,2.665Zm5.438,5.509-.163,4.615a1.026,1.026,0,0,1-1.541.853h0L46.5,75.139A1.028,1.028,0,0,1,46,74.165l.174-5.673-4.6-2.654V83.407L49.691,88.1h0l7.09,4.094V74.618l-4.132-2.385ZM68.837,61.641,53.724,70.485l4.086,2.359,15.215-8.785-4.188-2.418Zm2.115,18.8-3.359,1.939a1.026,1.026,0,1,0,1.023,1.779l3.358-1.939a1.026,1.026,0,0,0-1.022-1.779Zm7.762-26.328v2.738a1.03,1.03,0,0,0,1.768.719L88.01,50.04a1.029,1.029,0,0,0,0-1.457l-7.537-7.538a1.031,1.031,0,0,0-1.759.729v2.738h-12.3a1.031,1.031,0,0,0-1.031,1.031V53.08a1.032,1.032,0,0,0,1.031,1.031ZM67.442,52.05h12.3a1.031,1.031,0,0,1,1.031,1.03v1.281l5.05-5.05-5.05-5.05v1.282a1.031,1.031,0,0,1-1.031,1.03h-12.3Z"/><text x="0" y="115" fill="#000000" font-size="5px" font-weight="bold" font-family="'Helvetica Neue', Helvetica, Arial-Unicode, Arial, Sans-serif">Created by Orange Cat</text><text x="0" y="120" fill="#000000" font-size="5px" font-weight="bold" font-family="'Helvetica Neue', Helvetica, Arial-Unicode, Arial, Sans-serif">from the Noun Project</text></svg>