<svg xmlns="http://www.w3.org/2000/svg" version="1.1" viewBox="-5.0 -10.0 110.0 135.0">
 <path d="m89.875 90.094c-4.5469-14.234-16.078-24.641-30.141-27.969h0.03125c3.5938-1.5469 6.7344-3.9062 9.2188-6.875h1.6875c3.6562 0 6.6875-2.6406 7.3281-6.0938h0.23438c2.6875 0 4.8906-2.1875 4.8906-4.875v-9.9688c0-2.0938-1.3281-3.875-3.1719-4.5625-4.125-12.953-16.312-21.922-29.953-21.922s-25.844 8.9688-29.969 21.922c-1.8438 0.6875-3.1562 2.4688-3.1562 4.5625v9.9688c0 2.6875 2.1875 4.875 4.875 4.875h5.4688c2.5312 5.8125 7.2188 10.469 13.047 12.969-14.078 3.3281-25.625 13.766-30.156 28.047-0.26562 0.82812 0.1875 1.7031 1.0156 1.9688 0.15625 0.046875 0.3125 0.078125 0.46875 0.078125 0.65625 0 1.2812-0.42188 1.4844-1.0938 5.125-16.156 19.953-27 36.906-27s31.75 10.828 36.891 26.938c0.26562 0.82812 1.1406 1.2812 1.9688 1.0156s1.2812-1.1406 1.0156-1.9688zm-18.594-38.047c0.5625-0.9375 1.0625-1.9062 1.5-2.9062h2c-0.51562 1.5312-1.8594 2.6719-3.5 2.9062zm-21.266-41.109c11.828 0 22.469 7.5 26.547 18.469h-3.7812c-3.8281-8.7969-12.578-14.953-22.766-14.953s-18.953 6.1562-22.781 14.953h-3.7656c4.0781-10.969 14.703-18.469 26.547-18.469zm-20.188 36.328s-0.015625-0.0625-0.03125-0.09375c-0.046875-0.10938-0.078125-0.21875-0.125-0.32812-0.875-2.3594-1.3594-4.9062-1.3594-7.5625s0.48438-5.25 1.375-7.625c0.046875-0.0625 0.078125-0.125 0.09375-0.20312 3.1406-8.1094 11.031-13.875 20.234-13.875s17.078 5.7656 20.219 13.875c0.03125 0.078125 0.0625 0.15625 0.10938 0.23438 0.875 2.3594 1.3594 4.9219 1.3594 7.5938s-0.48438 5.1875-1.3438 7.5469c-0.015625 0.015625-0.03125 0.03125-0.03125 0.046875-0.03125 0.09375-0.0625 0.20312-0.10938 0.29688-0.015625 0.03125-0.03125 0.0625-0.03125 0.09375-0.70312 1.7344-1.6094 3.3594-2.7031 4.8438h-10.094s-0.125 0.03125-0.1875 0.03125v-0.03125c-0.625-1.7344-2.2969-2.9688-4.2344-2.9688-2.5 0-4.5156 2.0312-4.5156 4.5156s2.0156 4.5156 4.5156 4.5156c1.9375 0 3.6094-1.2344 4.2344-2.9688v-0.015625c0.0625 0 0.125 0.03125 0.1875 0.03125h7.2969c-3.875 3.5625-9.0156 5.7344-14.672 5.7344-9.1562 0-16.984-5.6875-20.188-13.703z"/>
<text x="0.0" y="117.5" font-size="5.0" font-weight="bold" font-family="Arbeit Regular, Helvetica, Arial-Unicode, Arial, Sans-serif" fill="#000000">Created by Yosua Bungaran</text><text x="0.0" y="122.5" font-size="5.0" font-weight="bold" font-family="Arbeit Regular, Helvetica, Arial-Unicode, Arial, Sans-serif" fill="#000000">from Noun Project</text></svg>