<svg xmlns="http://www.w3.org/2000/svg" xmlns:xlink="http://www.w3.org/1999/xlink" version="1.1" x="0px" y="0px" viewBox="0 0 128 160" style="enable-background:new 0 0 128 128;" xml:space="preserve"><g><g><path d="M7.044,92.17h27.441v5.983H23.79c-1.104,0-2,0.896-2,2s0.896,2,2,2h25.391c1.104,0,2-0.896,2-2s-0.896-2-2-2H38.485V92.17    h27.421c2.792,0,5.064-2.276,5.064-5.074v-6.848V78.24c7.333-0.535,13.138-6.637,13.138-14.08c0-7.442-5.806-13.545-13.138-14.08    v-9.305c0-2.787-2.263-5.054-5.045-5.054H7.044C4.263,35.721,2,37.988,2,40.775v39.474v6.868C2,89.903,4.263,92.17,7.044,92.17z     M66.971,87.097c0,0.602-0.468,1.074-1.064,1.074H7.044C6.469,88.17,6,87.698,6,87.117v-4.868h60.971V87.097z M80.109,64.16    c0,5.587-4.566,10.133-10.179,10.133S59.752,69.748,59.752,64.16c0-5.587,4.566-10.132,10.179-10.132S80.109,58.573,80.109,64.16z     M6,40.775c0-0.581,0.469-1.054,1.044-1.054h58.882c0.576,0,1.045,0.473,1.045,1.054v9.568    C60.57,51.704,55.752,57.38,55.752,64.16c0,6.781,4.818,12.457,11.219,13.818v0.27H6V40.775z"/><path d="M17.78,62.53h-4.059c-1.104,0-2,0.896-2,2v4.074c0,1.104,0.896,2,2,2h4.059c1.104,0,2-0.896,2-2V64.53    C19.78,63.426,18.885,62.53,17.78,62.53z M15.78,66.604h-0.059V66.53h0.059V66.604z"/><path d="M51.131,64.952H25.238c-1.104,0-2,0.896-2,2s0.896,2,2,2h25.893c1.104,0,2-0.896,2-2S52.235,64.952,51.131,64.952z"/><path d="M17.78,47.365h-4.059c-1.104,0-2,0.896-2,2v4.074c0,1.104,0.896,2,2,2h4.059c1.104,0,2-0.896,2-2v-4.074    C19.78,48.26,18.885,47.365,17.78,47.365z M15.78,51.439h-0.059v-0.074h0.059V51.439z"/><path d="M51.131,49.787H25.238c-1.104,0-2,0.896-2,2s0.896,2,2,2h25.893c1.104,0,2-0.896,2-2S52.235,49.787,51.131,49.787z"/><path d="M66.766,63.201c-0.898-0.643-2.148-0.436-2.79,0.463c-0.643,0.898-0.436,2.147,0.463,2.79l2.853,2.041    c0.351,0.251,0.758,0.374,1.163,0.374c0.539,0,1.073-0.217,1.464-0.637l6.466-6.939c0.753-0.808,0.708-2.073-0.1-2.827    c-0.808-0.753-2.074-0.708-2.827,0.1l-5.268,5.654L66.766,63.201z"/><path d="M90.751,110.307l9.812,0.103c0.007,0,0.014,0,0.021,0c1.095,0,1.988-0.882,2-1.979c0.011-1.104-0.875-2.009-1.979-2.021    l-7.833-0.082v-41.09h5.87c1.104,0,2-0.896,2-2s-0.896-2-2-2h-5.87V21.693h7.812c1.104,0,2-0.896,2-2s-0.896-2-2-2h-9.812    c-1.104,0-2,0.896-2,2v41.545h-1.545c-1.104,0-2,0.896-2,2s0.896,2,2,2h1.545v43.069    C88.772,109.403,89.655,110.295,90.751,110.307z"/><path d="M126,11c0-1.104-0.896-2-2-2h-18.268c-1.104,0-2,0.896-2,2v18.199c0,1.104,0.896,2,2,2H124c1.104,0,2-0.896,2-2V11z     M122,27.199h-14.268V13H122V27.199z"/><path d="M126,98.801c0-1.104-0.896-2-2-2h-18.268c-1.104,0-2,0.896-2,2V117c0,1.104,0.896,2,2,2H124c1.104,0,2-0.896,2-2V98.801z     M122,115h-14.268v-14.199H122V115z"/><path d="M126,54.9c0-1.104-0.896-2-2-2h-18.268c-1.104,0-2,0.896-2,2V73.1c0,1.104,0.896,2,2,2H124c1.104,0,2-0.896,2-2V54.9z     M122,71.1h-14.268V56.9H122V71.1z"/><path d="M110.808,22.322l2.506,1.256c0.284,0.142,0.591,0.212,0.896,0.212c0.481,0,0.958-0.173,1.332-0.508l4.396-3.923    c0.824-0.735,0.896-2,0.161-2.824c-0.736-0.825-2-0.896-2.824-0.161l-3.383,3.019l-1.292-0.648    c-0.988-0.495-2.189-0.096-2.685,0.892C109.422,20.625,109.821,21.827,110.808,22.322z"/><path d="M110.809,66.25l2.506,1.256c0.284,0.143,0.591,0.212,0.896,0.212c0.481,0,0.958-0.173,1.332-0.508l4.396-3.923    c0.824-0.735,0.896-2,0.161-2.824c-0.736-0.825-2-0.895-2.824-0.161l-3.383,3.019l-1.292-0.647    c-0.988-0.496-2.189-0.096-2.684,0.892C109.422,64.553,109.821,65.755,110.809,66.25z"/></g></g><text x="0" y="143" fill="#000000" font-size="5px" font-weight="bold" font-family="'Helvetica Neue', Helvetica, Arial-Unicode, Arial, Sans-serif">Created by Shocho</text><text x="0" y="148" fill="#000000" font-size="5px" font-weight="bold" font-family="'Helvetica Neue', Helvetica, Arial-Unicode, Arial, Sans-serif">from the Noun Project</text></svg>