<svg xmlns="http://www.w3.org/2000/svg" viewBox="0 0 60 75" x="0px" y="0px"><path d="M31.442,46.934,32.636,44a1,1,0,0,1,.689-.6,13.646,13.646,0,0,0,3.792-1.574,1,1,0,0,1,.909-.063l2.87,1.225a14.116,14.116,0,0,0,2.092-2.039l-1.227-2.922a1,1,0,0,1,.063-.909A13.7,13.7,0,0,0,43.4,33.325a1,1,0,0,1,.6-.688l2.9-1.158a12.662,12.662,0,0,0,.036-2.922L44,27.363a1,1,0,0,1-.6-.688,13.7,13.7,0,0,0-1.573-3.794,1,1,0,0,1-.063-.909L42.985,19.1a14.126,14.126,0,0,0-2.038-2.093l-2.921,1.228a1,1,0,0,1-.909-.063A13.646,13.646,0,0,0,33.325,16.6a1,1,0,0,1-.689-.6l-1.157-2.9a13.485,13.485,0,0,0-2.921-.036L27.364,16a1,1,0,0,1-.689.6,13.646,13.646,0,0,0-3.792,1.574,1,1,0,0,1-.909.063L19.1,17.011a14.174,14.174,0,0,0-2.093,2.039l1.228,2.922a1,1,0,0,1-.063.909A13.7,13.7,0,0,0,16.6,26.675a1,1,0,0,1-.6.688l-2.9,1.158a12.662,12.662,0,0,0-.036,2.922v0L16,32.637a1,1,0,0,1,.6.688,13.7,13.7,0,0,0,1.573,3.794,1,1,0,0,1,.063.909L17.015,40.9a14.187,14.187,0,0,0,2.038,2.094l2.921-1.229a.993.993,0,0,1,.392-.08,1,1,0,0,1,.517.143A13.646,13.646,0,0,0,26.675,43.4a1,1,0,0,1,.689.6l1.157,2.9A13.486,13.486,0,0,0,31.442,46.934ZM27.781,35.625a1,1,0,0,1-.725.373L27,36a.993.993,0,0,1-.707-.293l-2-2a1,1,0,0,1,1.414-1.414l1.21,1.21,7.3-9.128a1,1,0,1,1,1.562,1.25Z"/><path d="M56.985,31a1,1,0,0,0-1,.926A25.966,25.966,0,0,1,40.3,53.906a1,1,0,0,1-1.283-.455l-.371-.711a.12.12,0,0,0-.106-.065l-1.209,3.93a.136.136,0,0,0,.08.154l3.861,1.234c.127-.074.1-.122.087-.148L40.912,57a1,1,0,0,1,.481-1.379A27.963,27.963,0,0,0,58,32.081a.991.991,0,0,0-.267-.756A1,1,0,0,0,56.985,31Z"/><path d="M3.015,29a1,1,0,0,0,1-.926A25.966,25.966,0,0,1,19.7,6.094a1,1,0,0,1,1.283.455l.371.711a.12.12,0,0,0,.106.065L22.671,3.4a.136.136,0,0,0-.08-.154L18.73,2.007c-.127.074-.1.122-.087.148L19.088,3a1,1,0,0,1-.481,1.379A27.963,27.963,0,0,0,2,27.919a.991.991,0,0,0,.267.756A1,1,0,0,0,3.015,29Z"/><path d="M6.549,39.015l.711-.371a.1.1,0,0,0,.065-.106L3.4,37.329a.135.135,0,0,0-.154.08L2.007,41.27c.075.127.122.1.148.087L3,40.912a1,1,0,0,1,.465-.114.985.985,0,0,1,.329.056,1,1,0,0,1,.585.539A27.963,27.963,0,0,0,27.919,58a.966.966,0,0,0,.756-.267,1,1,0,0,0-.6-1.741A25.966,25.966,0,0,1,6.094,40.3,1,1,0,0,1,6.549,39.015Z"/><path d="M31.325,2.27a1,1,0,0,0,.6,1.741A25.966,25.966,0,0,1,53.906,19.7a1,1,0,0,1-.455,1.283l-.711.371a.1.1,0,0,0-.065.106l3.93,1.209a.135.135,0,0,0,.154-.08l1.234-3.861c-.075-.126-.122-.1-.148-.087L57,19.088a1,1,0,0,1-1.379-.481A27.963,27.963,0,0,0,32.081,2,.989.989,0,0,0,31.325,2.27Z"/><text x="0" y="75" fill="#000000" font-size="5px" font-weight="bold" font-family="'Helvetica Neue', Helvetica, Arial-Unicode, Arial, Sans-serif">Created by Juicy Fish</text><text x="0" y="80" fill="#000000" font-size="5px" font-weight="bold" font-family="'Helvetica Neue', Helvetica, Arial-Unicode, Arial, Sans-serif">from the Noun Project</text></svg>