<svg xmlns="http://www.w3.org/2000/svg" version="1.1" viewBox="-5.0 -10.0 110.0 135.0">
 <path d="m81.332 57.996c1.9609 0 3.5547-1.5977 3.5547-3.5625v-8.8711c0-1.9609-1.5938-3.5547-3.5547-3.5547h-2.4375c-0.65234-2.3672-1.5977-4.6406-2.8125-6.7812l1.7305-1.7266c1.3789-1.3867 1.3789-3.6445-0.003906-5.0312l-6.2773-6.2773c-1.3867-1.3789-3.6445-1.3789-5.0352 0.003906l-1.7227 1.7266c-2.1406-1.2188-4.4141-2.1602-6.7773-2.8125v-2.4336c0-1.9648-1.5977-3.5625-3.5625-3.5625h-8.8711c-1.9609 0-3.5547 1.5977-3.5547 3.5625v2.4336c-2.3672 0.65625-4.6406 1.5977-6.7812 2.8125l-1.7266-1.7305c-1.3867-1.3789-3.6445-1.3789-5.0312 0.003906l-6.2773 6.2773c-1.3789 1.3867-1.3789 3.6445 0.003906 5.0312l1.7227 1.7227c-1.2148 2.1445-2.1602 4.418-2.8086 6.7812h-2.4336c-1.9648 0-3.5625 1.5938-3.5625 3.5547v8.8711c0 1.9648 1.5977 3.5625 3.5625 3.5625h2.4336c0.65234 2.3633 1.5977 4.6367 2.8125 6.7773l-1.7305 1.7266c-1.3789 1.3867-1.3789 3.6445 0.003906 5.0312l6.2773 6.2773c1.3867 1.3789 3.6445 1.3789 5.0312-0.003906l1.7227-1.7227c2.1445 1.2148 4.418 2.1602 6.7812 2.8086v2.4375c0 1.9609 1.5938 3.5547 3.5547 3.5547h8.8711c1.9648 0 3.5625-1.5938 3.5625-3.5547v-2.4375c2.3594-0.65234 4.6328-1.5938 6.7773-2.8086l1.7266 1.7266c1.3867 1.3789 3.6445 1.3789 5.0312-0.003906l6.2773-6.2773c1.3789-1.3867 1.3789-3.6445-0.003906-5.0312l-1.7227-1.7227c1.2109-2.1367 2.1523-4.4062 2.8086-6.7773zm-4.4805-1.4453c-0.67578 2.7578-1.7617 5.3867-3.2344 7.8047-0.28125 0.46094-0.21094 1.0547 0.17187 1.4336l2.3594 2.3594c0.47656 0.47656 0.47656 1.2539 0.003906 1.7305l-6.2695 6.2734c-0.47656 0.47656-1.2539 0.47656-1.7305 0.003906l-2.3633-2.3633c-0.38281-0.38281-0.97266-0.45312-1.4336-0.17188-2.4336 1.4805-5.0586 2.5664-7.8047 3.2344-0.52344 0.12891-0.89453 0.59766-0.89453 1.1367v3.3438c0 0.67187-0.54688 1.2188-1.2227 1.2188h-8.8711c-0.67188 0-1.2188-0.54688-1.2188-1.2188v-3.3438c0-0.53906-0.36719-1.0117-0.89453-1.1367-2.7461-0.66406-5.375-1.7539-7.8086-3.2344-0.1875-0.11328-0.39844-0.17188-0.60547-0.17188-0.30078 0-0.60156 0.11719-0.82812 0.34375l-2.3594 2.3594c-0.47656 0.47656-1.2539 0.47656-1.7305 0.003906l-6.2734-6.2734c-0.47656-0.47656-0.47656-1.2539-0.003906-1.7266l2.3672-2.3633c0.38281-0.38281 0.45312-0.97656 0.17188-1.4375-1.4805-2.4258-2.5703-5.0508-3.2383-7.8008-0.12891-0.52344-0.59766-0.89453-1.1367-0.89453h-3.3398c-0.67578 0-1.2227-0.54688-1.2227-1.2227v-8.8711c0-0.67188 0.54688-1.2188 1.2227-1.2188h3.3398c0.53906 0 1.0117-0.36719 1.1367-0.89453 0.66406-2.7461 1.7539-5.375 3.2344-7.8086 0.28125-0.46094 0.21094-1.0547-0.17188-1.4336l-2.3594-2.3594c-0.47656-0.47656-0.47656-1.2539-0.003906-1.7305l6.2734-6.2734c0.47656-0.47656 1.2539-0.47656 1.7266-0.003906l2.3633 2.3672c0.38281 0.38281 0.97656 0.45312 1.4375 0.17187 2.4297-1.4766 5.0586-2.5664 7.8086-3.2383 0.52344-0.12891 0.89062-0.59766 0.89062-1.1367v-3.3398c0-0.67578 0.54688-1.2227 1.2188-1.2227h8.8711c0.67187 0 1.2227 0.54688 1.2227 1.2227v3.3398c0 0.53906 0.36719 1.0078 0.89453 1.1367 2.75 0.66797 5.375 1.7578 7.8008 3.2383 0.46094 0.28125 1.0547 0.21094 1.4375-0.17187l2.3594-2.3633c0.47656-0.47656 1.2539-0.47656 1.7305-0.003906l6.2734 6.2734c0.47656 0.47656 0.47656 1.2539 0.003906 1.7266l-2.3672 2.3633c-0.38281 0.38281-0.45312 0.97656-0.17188 1.4375 1.4805 2.4297 2.5703 5.0547 3.2383 7.8047 0.12891 0.52344 0.59766 0.89453 1.1367 0.89453h3.3438c0.67188 0 1.2188 0.54688 1.2188 1.2188v8.8711c0 0.67578-0.54688 1.2227-1.2188 1.2227h-3.3438c-0.53906 0-1.0078 0.36719-1.1367 0.89062zm-26.852-28.516c-12.113 0-21.965 9.8555-21.965 21.965 0 5.3633 1.9336 10.281 5.1406 14.102 0.027344 0.035157 0.054688 0.066407 0.085938 0.10156 4.0312 4.7461 10.039 7.7656 16.738 7.7656s12.707-3.0195 16.738-7.7656c0.03125-0.03125 0.0625-0.0625 0.089844-0.10156 3.2031-3.8164 5.1406-8.7344 5.1406-14.102 0-12.113-9.8555-21.965-21.965-21.965zm0 41.594c-5.8203 0-11.039-2.5586-14.637-6.5938 0.74219-3.9648 4.6875-6.8516 10.715-7.8125 1.1992 0.53906 2.5234 0.84766 3.9219 0.84766s2.7227-0.30859 3.9219-0.84766c6.0273 0.96094 9.9727 3.8477 10.715 7.8125-3.5977 4.0352-8.8164 6.5977-14.637 6.5977zm-9.4766-24.617c-0.17578-0.75391-0.77734-1.3477-1.5391-1.5117 1.3242-4.8945 5.8398-8.4453 11.012-8.4453s9.6914 3.5508 11.016 8.4453c-0.76172 0.16406-1.3633 0.76172-1.5352 1.5234-0.69922-4.6055-4.6758-8.1523-9.4766-8.1523s-8.7695 3.5391-9.4766 8.1406zm-3.6367 0.78125h1.3555v3.1211h-1.3555zm22.383 3.1211c0.054688-0.21094 0.10938-0.42578 0.15234-0.64453v0.64453zm2.4922-3.1211h0.68359 0.003907 0.66797v3.1211h-1.3555zm-11.762-6.582c4.0039 0 7.2578 3.2578 7.2578 7.2578 0 0.85938-0.15625 1.6797-0.43359 2.4414h-1.9961c-0.64453 0-1.168 0.52344-1.168 1.1719 0 0.64453 0.52344 1.1719 1.168 1.1719h0.61719c-1.332 1.5156-3.2773 2.4766-5.4453 2.4766-4.0039 0-7.2578-3.2578-7.2578-7.2578 0-4.0039 3.2578-7.2578 7.2578-7.2578zm16.391 21.559c-0.73438-1.8008-2.0117-3.3906-3.8047-4.6797-1.6406-1.1758-3.6719-2.0859-5.9648-2.6875 0.66016-0.62891 1.2266-1.3516 1.6875-2.1484h5.125c1.1133 0 2.0234-0.90625 2.0234-2.0234v-3.7617c0-1.1133-0.90625-2.0156-2.0234-2.0156h-0.019532c-0.63672-2.8398-2.1641-5.4258-4.3828-7.3594-2.5039-2.1797-5.707-3.3789-9.0273-3.3789-3.3203 0-6.5273 1.1992-9.0273 3.3789-2.2188 1.9336-3.7461 4.5195-4.3867 7.3594h-0.019532c-1.1133 0-2.0156 0.90625-2.0156 2.0156v3.7617c0 1.1133 0.90625 2.0234 2.0156 2.0234h1.9922c1.1133 0 2.0234-0.90625 2.0234-2.0234v-0.92969c0.38672 1.9844 1.3867 3.75 2.793 5.0977-2.293 0.60156-4.3242 1.5117-5.9648 2.6875-1.793 1.2891-3.0703 2.8828-3.8047 4.6797-2.0391-3.0938-3.2344-6.7891-3.2344-10.766 0-10.82 8.8047-19.625 19.625-19.625s19.625 8.8047 19.625 19.625c0 3.9766-1.1953 7.6719-3.2344 10.766zm-54.941-21.098c-1.4844 5.5312-1.7695 11.18-0.84766 16.785 0.10547 0.63672-0.32812 1.2383-0.96484 1.3438-0.0625 0.011719-0.12891 0.015625-0.19141 0.015625-0.5625 0-1.0586-0.40625-1.1523-0.98047-0.97656-5.9375-0.67578-11.914 0.89453-17.77 2.9219-10.902 9.9102-20.016 19.684-25.656 9.7734-5.6445 21.16-7.1406 32.062-4.2188 9.2812 2.4883 17.254 7.9297 22.902 15.523l-0.30859-2.6328c-0.074219-0.64062 0.38281-1.2227 1.0234-1.2969 0.64062-0.078125 1.2227 0.38281 1.2969 1.0234l0.88281 7.5039v0.003906 0.007813c0.015625 0.13672 0 0.26562-0.027344 0.39453-0.007813 0.035156-0.019531 0.070312-0.03125 0.10547-0.03125 0.10156-0.078125 0.19141-0.13672 0.28125-0.019531 0.027343-0.03125 0.058593-0.054687 0.082031-0.078125 0.097656-0.16406 0.18359-0.27344 0.25391-0.011719 0.007813-0.023437 0.007813-0.035156 0.015625-0.007813 0.003907-0.011719 0.011719-0.019531 0.015625-0.019532 0.011719-0.042969 0.011719-0.066406 0.023438-0.10156 0.050781-0.20313 0.085937-0.3125 0.10547-0.039063 0.007813-0.078126 0.015626-0.12109 0.015626-0.027344 0.003906-0.058594 0.011718-0.085938 0.011718-0.097656 0-0.19922-0.015625-0.29297-0.039062h-0.011719c-0.10156-0.027344-0.19922-0.066406-0.29297-0.12109l-6.5117-3.8594c-0.55469-0.32812-0.73828-1.0469-0.41016-1.6016 0.32812-0.55469 1.0469-0.73828 1.6016-0.41016l2.0977 1.2422c-5.3242-7.0273-12.773-12.066-21.43-14.387-10.301-2.7617-21.055-1.3477-30.285 3.9844-9.2305 5.3281-15.836 13.938-18.594 24.238zm79.363 21.266c-2.9219 10.902-9.9141 20.012-19.688 25.656-6.5117 3.7578-13.734 5.6797-21.059 5.6797-3.668 0-7.3633-0.48047-11-1.457-9.2773-2.4844-17.254-7.9297-22.91-15.527l0.30859 2.6328c0.074218 0.64062-0.38281 1.2227-1.0234 1.2969-0.046875 0.007812-0.09375 0.007812-0.13672 0.007812-0.58594 0-1.0898-0.4375-1.1602-1.0312l-0.88281-7.5039v-0.003906-0.007812c-0.015625-0.13672 0-0.26563 0.027343-0.39453 0.007813-0.035156 0.019532-0.070312 0.03125-0.10547 0.03125-0.10156 0.078126-0.19141 0.13672-0.28125 0.019531-0.027344 0.03125-0.058594 0.054688-0.082032 0.078125-0.097656 0.16406-0.18359 0.27344-0.25391 0.011719-0.007812 0.023438-0.007812 0.035156-0.015625 0.007813-0.003906 0.011719-0.011719 0.019532-0.015625 0.019531-0.011719 0.039062-0.011719 0.058594-0.019531 0.10156-0.050781 0.21094-0.089844 0.32031-0.10938 0.035156-0.007813 0.070312-0.015625 0.10938-0.015625 0.13281-0.011719 0.26562-0.007813 0.39453 0.027343 0.007813 0.003907 0.015625 0.007813 0.019532 0.007813 0.09375 0.027344 0.1875 0.0625 0.27734 0.11328l6.5117 3.8594c0.55469 0.32812 0.73828 1.0469 0.41016 1.6016-0.32812 0.55469-1.0469 0.73828-1.6016 0.41016l-2.0938-1.2422c5.3281 7.0312 12.781 12.07 21.43 14.391 3.4453 0.92187 6.9102 1.3633 10.316 1.3633 17.621 0.003906 33.789-11.773 38.562-29.586 1.4805-5.5352 1.7617-11.188 0.84375-16.789-0.10547-0.63672 0.32812-1.2383 0.96484-1.3438s1.2383 0.32812 1.3438 0.96484c0.97656 5.9336 0.67578 11.914-0.89062 17.773z"/>
<text x="0.0" y="117.5" font-size="5.0" font-weight="bold" font-family="Arbeit Regular, Helvetica, Arial-Unicode, Arial, Sans-serif" fill="#000000">Created by syafii5758</text><text x="0.0" y="122.5" font-size="5.0" font-weight="bold" font-family="Arbeit Regular, Helvetica, Arial-Unicode, Arial, Sans-serif" fill="#000000">from Noun Project</text></svg>